<svg width="23" height="23" viewBox="0 0 23 23" fill="none" xmlns="http://www.w3.org/2000/svg">
<path d="M4.35108 1.00584L4.36963 0.908478L4.40628 0.792548L4.44113 0.714658L4.50065 0.611175L4.56652 0.524671L4.64076 0.446996L4.7218 0.380643L4.80827 0.323342L4.87347 0.289591L4.99708 0.241565L5.09579 0.216185C5.19691 0.19654 5.2991 0.193196 5.40234 0.206155L5.49948 0.225605C5.5677 0.242646 5.63231 0.266479 5.6933 0.297106L5.79678 0.356629L20.6912 10.3617C20.9074 10.5348 21.0693 10.7663 21.1578 11.0287C21.2462 11.2911 21.2575 11.5734 21.1903 11.8421C21.1304 12.0841 21.009 12.3066 20.8378 12.4878C20.6666 12.6691 20.4514 12.8031 20.2132 12.8767L20.0834 12.9069L13.2553 14.4267L8.72516 19.713C8.5671 19.911 8.35984 20.064 8.12408 20.1567C7.88833 20.2495 7.63236 20.2787 7.38177 20.2415L7.24547 20.2132C6.73828 20.0865 6.34266 19.6981 6.19492 19.1416L6.16319 18.999L4.34637 1.20961L4.34318 1.10682L4.35108 1.00584Z" fill="url(#paint0_linear_1940_4697)"/>
<defs>
<linearGradient id="paint0_linear_1940_4697" x1="2.29826" y1="9.20182" x2="20.7017" y2="13.7983" gradientUnits="userSpaceOnUse">
<stop stop-color="#029EFA"/>
</linearGradient>
</defs>
</svg>
